<svg xmlns="http://www.w3.org/2000/svg" xmlns:xlink="http://www.w3.org/1999/xlink" viewBox="268.75 269.35 485.93 484.76">
	<path d="M454.013 270.142C464.591 269.319 475.52 269.996 486.145 269.93Q486.007 279.946 486.172 289.961C477.287 294.541 469.209 301.455 464.147 310.148Q463.494 311.291 462.898 312.465Q462.303 313.639 461.767 314.841Q461.23 316.043 460.754 317.271Q460.278 318.498 459.863 319.747Q459.449 320.997 459.097 322.265Q458.745 323.534 458.456 324.818Q458.168 326.103 457.944 327.4Q457.719 328.697 457.559 330.003Q457.4 331.31 457.305 332.623Q457.211 333.936 457.181 335.252Q457.152 336.568 457.188 337.884Q457.224 339.2 457.326 340.513Q457.427 341.825 457.594 343.131Q457.76 344.437 457.992 345.733Q458.223 347.029 458.518 348.312Q458.813 349.594 459.172 350.861Q459.519 352.14 459.93 353.4Q460.34 354.66 460.812 355.898Q461.285 357.136 461.818 358.349Q462.351 359.562 462.943 360.747Q463.536 361.933 464.186 363.087Q464.836 364.242 465.543 365.363Q466.25 366.483 467.012 367.568Q467.773 368.652 468.588 369.698Q469.402 370.743 470.267 371.747Q471.132 372.751 472.046 373.71Q472.96 374.67 473.92 375.583Q474.88 376.496 475.884 377.361Q476.888 378.225 477.934 379.039Q478.98 379.853 480.065 380.614Q481.15 381.375 482.271 382.081Q483.392 382.787 484.547 383.437C497.375 390.596 512.777 392.883 526.98 388.836Q528.274 388.459 529.549 388.019Q530.823 387.579 532.075 387.077Q533.326 386.575 534.551 386.012Q535.776 385.449 536.972 384.826Q538.168 384.204 539.332 383.524Q540.496 382.843 541.625 382.107Q542.755 381.37 543.846 380.579Q544.938 379.788 545.99 378.944Q547.041 378.1 548.05 377.206Q549.059 376.311 550.023 375.368Q550.986 374.425 551.903 373.436Q552.819 372.447 553.685 371.415Q554.552 370.382 555.367 369.308Q556.182 368.233 556.943 367.121Q557.704 366.008 558.41 364.859Q559.116 363.71 559.764 362.528C566.296 350.715 568.912 335.83 565.045 322.715C560.512 307.342 550.931 297.166 537.026 289.714L537.03 270.063C542.764 270.167 548.524 270.002 554.261 269.988C567.621 269.957 581.602 270.81 591.56 280.904C596.019 285.424 598.957 291.209 600.414 297.36C603.043 308.456 601.74 320.068 601.712 331.344L601.678 377.51C601.675 390.359 605.303 402.026 614.597 411.189C629.016 425.405 648.411 423.386 667.012 423.206C681.988 423.061 716.879 421.302 729.651 425.133Q730.634 425.429 731.596 425.785Q732.559 426.141 733.498 426.557Q734.436 426.972 735.347 427.444Q736.259 427.916 737.139 428.444Q738.019 428.972 738.865 429.553Q739.711 430.135 740.519 430.767Q741.328 431.4 742.095 432.081Q742.863 432.762 743.587 433.49C757.245 447.123 754.143 468.459 754.04 485.998C747.483 485.983 740.753 485.774 734.229 486.457C729.407 478.503 724.978 471.864 717.128 466.578Q716.056 465.86 714.95 465.196Q713.844 464.532 712.707 463.923Q711.569 463.314 710.404 462.762Q709.238 462.21 708.046 461.716Q706.854 461.222 705.64 460.787Q704.425 460.352 703.19 459.978Q701.956 459.604 700.705 459.29Q699.453 458.977 698.188 458.726Q696.922 458.475 695.646 458.286Q694.37 458.097 693.086 457.972Q691.802 457.846 690.513 457.784Q689.225 457.722 687.935 457.723Q686.645 457.725 685.356 457.789Q684.068 457.854 682.784 457.982Q681.5 458.111 680.225 458.302Q678.949 458.493 677.684 458.747C663.262 461.647 649.93 469.888 641.886 482.325Q641.153 483.465 640.476 484.64Q639.8 485.815 639.182 487.022Q638.564 488.229 638.006 489.464Q637.448 490.7 636.951 491.961Q636.455 493.223 636.021 494.507Q635.586 495.791 635.216 497.095Q634.845 498.4 634.539 499.72Q634.233 501.041 633.992 502.375Q633.751 503.709 633.576 505.054Q633.401 506.398 633.292 507.749Q633.183 509.101 633.14 510.456Q633.098 511.811 633.122 513.166Q633.146 514.522 633.236 515.875Q633.327 517.227 633.484 518.574Q633.64 519.921 633.863 521.258Q634.086 522.595 634.374 523.92Q634.666 525.223 635.021 526.51Q635.377 527.797 635.795 529.065Q636.213 530.333 636.693 531.579Q637.173 532.825 637.714 534.046Q638.254 535.267 638.854 536.46Q639.454 537.653 640.111 538.816Q640.769 539.978 641.483 541.106Q642.197 542.234 642.965 543.327Q643.734 544.419 644.555 545.472Q645.376 546.525 646.247 547.536Q647.119 548.547 648.039 549.515Q648.96 550.482 649.926 551.404Q650.893 552.325 651.904 553.197Q652.915 554.07 653.967 554.892Q655.019 555.714 656.111 556.483Q657.202 557.252 658.33 557.967C669.859 565.389 684.204 568.645 697.679 565.668C714.154 562.027 725.064 552.465 733.919 538.475Q743.908 538.45 753.897 538.571C753.17 556.001 757.694 574.992 745.371 589.728Q744.541 590.705 743.64 591.616Q742.738 592.528 741.771 593.368Q740.803 594.209 739.775 594.975Q738.746 595.74 737.663 596.425Q736.58 597.111 735.448 597.712Q734.316 598.314 733.142 598.829Q731.968 599.343 730.759 599.768Q729.549 600.192 728.311 600.524C719.787 602.816 710.254 602.011 701.485 601.967L665.574 601.744C657.815 601.675 650.006 601.254 642.265 601.923C622.523 603.627 606.775 615.227 602.793 635.278C601.121 643.699 601.555 652.44 601.578 660.981L601.74 696.45C601.816 706.073 602.788 716.549 600.749 725.979C599.496 731.773 597.098 737.112 593.243 741.645C586.708 749.33 578.599 752.991 568.646 753.807C557.635 754.32 546.556 753.126 535.55 753.919Q535.862 743.97 535.783 734.016C545.279 728.813 553.233 723.138 559.009 713.728Q559.658 712.655 560.253 711.551Q560.848 710.447 561.389 709.316Q561.929 708.184 562.414 707.027Q562.898 705.871 563.325 704.692Q563.752 703.513 564.121 702.314Q564.49 701.115 564.8 699.9Q565.109 698.685 565.359 697.456Q565.609 696.227 565.798 694.988Q565.987 693.748 566.116 692.5Q566.244 691.253 566.311 690.001Q566.378 688.748 566.383 687.495Q566.389 686.24 566.333 684.988Q566.277 683.735 566.16 682.486Q566.043 681.238 565.865 679.996Q565.687 678.755 565.448 677.524Q565.209 676.293 564.91 675.075Q564.601 673.744 564.225 672.43Q563.849 671.116 563.408 669.823Q562.967 668.53 562.462 667.26Q561.957 665.99 561.389 664.748Q560.82 663.505 560.191 662.292Q559.561 661.079 558.871 659.9Q558.182 658.72 557.434 657.576Q556.686 656.433 555.882 655.328Q555.077 654.223 554.219 653.16Q553.36 652.097 552.449 651.078Q551.539 650.06 550.578 649.088Q549.617 648.116 548.609 647.194Q547.601 646.271 546.548 645.4Q545.495 644.529 544.4 643.712Q543.304 642.895 542.169 642.134Q541.035 641.373 539.863 640.67Q538.721 639.973 537.545 639.334Q536.37 638.695 535.164 638.116Q533.958 637.536 532.725 637.017Q531.492 636.499 530.235 636.042Q528.977 635.585 527.698 635.192Q526.42 634.799 525.123 634.469Q523.826 634.14 522.515 633.876Q521.203 633.612 519.88 633.414Q518.557 633.215 517.226 633.083Q515.895 632.951 514.558 632.885Q513.222 632.819 511.884 632.82Q510.547 632.821 509.21 632.889Q507.874 632.956 506.543 633.09Q505.212 633.224 503.889 633.425Q502.567 633.625 501.255 633.891Q499.944 634.157 498.648 634.488Q497.339 634.818 496.047 635.212Q494.755 635.606 493.484 636.063Q492.213 636.52 490.966 637.038Q489.719 637.557 488.499 638.136Q487.279 638.715 486.089 639.353Q484.898 639.991 483.741 640.687Q482.583 641.383 481.461 642.134Q480.339 642.886 479.255 643.692Q478.172 644.497 477.129 645.355Q476.086 646.213 475.086 647.121Q474.086 648.029 473.132 648.985Q472.178 649.941 471.272 650.943Q470.366 651.944 469.511 652.989Q468.655 654.034 467.851 655.119Q467.048 656.205 466.299 657.328Q465.549 658.452 464.856 659.611Q464.167 660.755 463.536 661.932Q462.904 663.108 462.333 664.315Q461.761 665.522 461.25 666.756Q460.739 667.99 460.29 669.247Q459.842 670.505 459.456 671.784Q459.071 673.062 458.749 674.358Q458.428 675.654 458.172 676.965Q457.916 678.276 457.725 679.597Q457.535 680.919 457.41 682.249Q457.286 683.578 457.228 684.912Q457.17 686.246 457.178 687.582Q457.187 688.917 457.262 690.25Q457.337 691.584 457.478 692.911Q457.62 694.239 457.828 695.559Q458.035 696.878 458.308 698.185Q458.581 699.492 458.919 700.784C463.1 717.025 473.712 726.092 487.534 734.367C487.391 740.832 487.142 747.31 487.392 753.774C477.526 753.772 467.613 754.302 457.753 753.849C439.723 753.02 425.248 745.15 421.985 726.039C420.729 718.684 421.082 710.999 421.076 703.559L421.1 670.003C421.211 657.8 422.538 644.807 419.66 632.86C418.121 626.473 415.144 620.43 410.676 615.58Q409.579 614.412 408.401 613.326Q407.223 612.239 405.97 611.239Q404.718 610.239 403.397 609.331Q402.076 608.423 400.694 607.612Q399.312 606.801 397.876 606.09Q396.439 605.379 394.956 604.773Q393.473 604.166 391.95 603.667Q390.427 603.168 388.872 602.779C379.041 600.276 368.636 601.27 358.596 601.359C341.529 601.51 324.19 602.333 307.149 601.61C296.142 601.143 286.566 598.21 278.959 589.865C266.606 576.314 268.961 556.399 269.615 539.483C276.375 539.48 283.114 539.513 289.869 539.795C293.942 546.913 300.026 553.307 306.843 557.862C318.214 565.459 332.977 568.584 346.397 565.819C360.632 562.885 373.31 553.865 381.258 541.775C388.678 530.489 392.087 515.367 389.196 502.073Q388.911 500.73 388.56 499.402Q388.209 498.075 387.792 496.767Q387.375 495.458 386.893 494.172Q386.411 492.886 385.866 491.626Q385.321 490.366 384.714 489.134Q384.107 487.902 383.44 486.702Q382.772 485.503 382.045 484.337Q381.319 483.172 380.535 482.045Q379.751 480.917 378.913 479.83Q378.074 478.743 377.182 477.699Q376.29 476.655 375.347 475.656Q374.404 474.658 373.413 473.708Q372.422 472.757 371.384 471.858Q370.347 470.958 369.266 470.111Q368.185 469.264 367.063 468.472Q365.942 467.68 364.782 466.945C352.796 459.4 338.492 456.71 324.674 459.882C310.214 463.202 297.986 472.544 290.165 485.067L269.313 484.995C269.058 469.653 266.796 451.694 276.186 438.429C280.189 432.775 286.003 428.166 292.53 425.792C307.333 420.408 348.59 422.7 366.024 422.911C373.269 422.999 380.81 423.501 387.973 422.269Q389.205 422.044 390.422 421.744Q391.638 421.443 392.833 421.068Q394.028 420.693 395.198 420.245Q396.368 419.796 397.507 419.276Q398.647 418.756 399.752 418.166Q400.858 417.576 401.924 416.919Q402.991 416.262 404.015 415.541Q405.039 414.819 406.016 414.035C423.008 400.298 421.449 379.044 421.388 359.25L421.168 322.902C421.072 309.964 420.25 296.14 428.182 285.109C434.401 276.46 443.688 271.834 454.013 270.142ZM505.562 598.848L535.488 599.055C546.557 599.14 558.952 600.058 569.7 597.092Q570.873 596.778 572.023 596.388Q573.173 595.999 574.296 595.537Q575.419 595.075 576.51 594.542Q577.601 594.009 578.656 593.407Q579.71 592.805 580.724 592.136Q581.737 591.468 582.706 590.735Q583.675 590.003 584.594 589.21Q585.514 588.417 586.381 587.567C597.383 576.768 598.894 562.437 598.911 547.759C598.927 534.418 598.687 521.074 598.81 507.733C598.943 493.191 600.546 469.295 597.36 455.945C595.609 448.609 591.411 441.101 586.075 435.774C571.553 421.272 550.071 424.948 531.496 425.044C527.89 425.063 523.475 425.41 519.944 424.794Q504.201 425.013 488.456 424.897C469.934 424.844 450.261 423.242 436.17 437.824C431.452 442.707 428.01 449.223 426.475 455.835C423.611 468.174 425.038 485.965 425.043 498.849C425.05 517.568 424.753 536.345 425.199 555.057C425.511 568.145 428.371 579.356 438.198 588.621C449.284 599.072 462.702 599.29 477.082 599.392C486.574 599.46 496.074 599.082 505.562 598.848Z"/>
	<path d="M487.098 482.583C500.846 482.61 514.994 481.892 528.694 482.777C533.246 483.071 538.239 484.381 541.244 488.076C542.732 489.906 543.282 492.054 543.664 494.342C544.72 500.662 544.681 522.172 543.986 528.645C543.39 534.208 541.413 537.195 537.192 540.588C534.779 542.107 532.081 542.714 529.277 543.017C523.169 543.677 516.832 542.914 510.695 542.864C503.254 542.804 495.192 543.931 487.891 542.646C486.034 542.319 483.823 541.813 482.758 540.118C481.393 537.949 480.844 534.682 480.572 532.142C479.896 525.822 479.804 493.923 481.085 488.503C481.786 485.539 484.692 484.031 487.098 482.583Z"/>
	<path d="M295.865 269.725C299.822 268.789 308.99 269.903 313.491 269.94L367.54 270.007L367.601 316.535C367.648 326.686 368.656 337.083 366.737 347.114C365.887 351.557 364.134 355.816 361.232 359.32C356.21 365.385 349.285 367.602 341.756 368.255C333.386 368.444 324.977 367.973 316.597 367.963C300.717 367.946 284.815 368.199 268.941 367.75C269.711 351.551 269.237 335.038 269.081 318.807C268.994 309.739 268.077 299.899 269.744 290.99C270.627 286.275 272.483 281.852 275.645 278.191C281.053 271.928 287.984 270.261 295.865 269.725Z"/>
	<path d="M280.971 657.284Q301.687 656.983 322.405 656.94C330.225 656.914 339.043 656.136 346.695 657.815C351.771 658.928 356.611 661.398 360.303 665.081Q360.955 665.737 361.559 666.437Q362.164 667.137 362.718 667.877Q363.272 668.617 363.772 669.395Q364.273 670.172 364.718 670.983Q365.163 671.794 365.551 672.633Q365.938 673.473 366.265 674.338Q366.593 675.203 366.859 676.088Q367.125 676.974 367.329 677.876C369.395 686.775 368.158 697.545 368.129 706.656L367.932 753.443C364.676 753.663 361.388 753.713 358.125 753.845C338.37 753.605 318.571 754.276 298.831 753.955C289.856 753.809 281.262 752.883 274.813 745.893C272.023 742.868 270.56 739.315 269.811 735.305C268.265 727.024 269.043 717.696 269.023 709.276Q268.721 683.385 269.574 657.506Q275.274 657.456 280.971 657.284Z"/>
	<path d="M716.58 269.715Q717.222 269.674 717.864 269.654C727.522 269.358 739.444 270.231 746.664 277.41C750.357 281.082 752.484 285.859 753.486 290.91C755.339 300.25 754.088 310.146 754.041 319.613L753.999 367.487C747.109 368.078 740.161 367.807 733.25 367.815C720.468 367.83 707.652 367.728 694.877 368.16C694.499 368.18 694.122 368.204 693.744 368.212C683.365 368.417 672.457 367.445 664.742 359.651C660.919 355.79 658.763 350.712 657.733 345.445C655.88 335.97 656.949 325.205 656.989 315.53L657.01 270.001C665.285 270.358 673.695 270.043 681.983 270.046C693.506 270.05 705.068 270.264 716.58 269.715Z"/>
	<path d="M678.299 657.128C688.175 656.108 698.624 656.875 708.557 656.903C723.669 656.946 738.914 656.525 754.006 657.227C754.191 670.521 753.894 683.824 754.11 697.119C754.284 707.778 755.224 718.764 754.224 729.383C753.834 733.521 753.003 738.597 750.729 742.115C746.312 748.947 739.932 751.846 732.322 753.505Q707.483 754.006 682.639 753.823C674.11 753.826 665.332 753.413 656.836 754.116Q657.043 730.941 656.97 707.765C656.917 699.222 656.17 690.635 657.108 682.117C657.568 677.937 658.577 673.771 660.598 670.055C664.618 662.663 670.573 659.479 678.299 657.128Z"/>
</svg>